<mxfile host="Electron" modified="2023-07-14T16:39:21.104Z" agent="Mozilla/5.0 (Windows NT 10.0; Win64; x64) AppleWebKit/537.36 (KHTML, like Gecko) draw.io/21.6.1 Chrome/112.0.5615.204 Electron/24.6.1 Safari/537.36" etag="8PYNG6sodXKgy2iOYFqP" version="21.6.1" type="device">
  <diagram name="Page-1" id="AFhsF8op9Y9TW3zyhBiD">
    <mxGraphModel dx="1985" dy="2055" grid="1" gridSize="10" guides="1" tooltips="1" connect="1" arrows="1" fold="1" page="1" pageScale="1" pageWidth="850" pageHeight="1100" math="0" shadow="0">
      <root>
        <mxCell id="0" />
        <mxCell id="1" parent="0" />
        <mxCell id="vxhg9_nKQ87Y8Qyns_xk-20" style="rounded=0;orthogonalLoop=1;jettySize=auto;html=1;entryX=1;entryY=0.5;entryDx=0;entryDy=0;labelBackgroundColor=none;fontColor=default;" parent="1" source="Pf63q6bYd26DnOZfkLJH-1" target="Pf63q6bYd26DnOZfkLJH-2" edge="1">
          <mxGeometry relative="1" as="geometry" />
        </mxCell>
        <mxCell id="vxhg9_nKQ87Y8Qyns_xk-21" style="rounded=0;orthogonalLoop=1;jettySize=auto;html=1;entryX=1;entryY=0.5;entryDx=0;entryDy=0;labelBackgroundColor=none;fontColor=default;" parent="1" source="Pf63q6bYd26DnOZfkLJH-1" target="vxhg9_nKQ87Y8Qyns_xk-1" edge="1">
          <mxGeometry relative="1" as="geometry" />
        </mxCell>
        <mxCell id="vxhg9_nKQ87Y8Qyns_xk-23" value="" style="rounded=0;orthogonalLoop=1;jettySize=auto;html=1;labelBackgroundColor=none;fontColor=default;" parent="1" source="Pf63q6bYd26DnOZfkLJH-1" target="vxhg9_nKQ87Y8Qyns_xk-11" edge="1">
          <mxGeometry relative="1" as="geometry" />
        </mxCell>
        <mxCell id="vxhg9_nKQ87Y8Qyns_xk-24" style="rounded=0;orthogonalLoop=1;jettySize=auto;html=1;entryX=0.5;entryY=1;entryDx=0;entryDy=0;labelBackgroundColor=none;fontColor=default;" parent="1" source="Pf63q6bYd26DnOZfkLJH-1" target="vxhg9_nKQ87Y8Qyns_xk-2" edge="1">
          <mxGeometry relative="1" as="geometry" />
        </mxCell>
        <mxCell id="vxhg9_nKQ87Y8Qyns_xk-25" style="rounded=0;orthogonalLoop=1;jettySize=auto;html=1;entryX=0;entryY=0.5;entryDx=0;entryDy=0;labelBackgroundColor=none;fontColor=default;" parent="1" source="Pf63q6bYd26DnOZfkLJH-1" target="vxhg9_nKQ87Y8Qyns_xk-12" edge="1">
          <mxGeometry relative="1" as="geometry" />
        </mxCell>
        <mxCell id="vxhg9_nKQ87Y8Qyns_xk-26" style="rounded=0;orthogonalLoop=1;jettySize=auto;html=1;entryX=0;entryY=0.5;entryDx=0;entryDy=0;labelBackgroundColor=none;fontColor=default;" parent="1" source="Pf63q6bYd26DnOZfkLJH-1" target="vxhg9_nKQ87Y8Qyns_xk-13" edge="1">
          <mxGeometry relative="1" as="geometry" />
        </mxCell>
        <mxCell id="vxhg9_nKQ87Y8Qyns_xk-27" style="rounded=0;orthogonalLoop=1;jettySize=auto;html=1;labelBackgroundColor=none;fontColor=default;" parent="1" source="Pf63q6bYd26DnOZfkLJH-1" target="vxhg9_nKQ87Y8Qyns_xk-14" edge="1">
          <mxGeometry relative="1" as="geometry" />
        </mxCell>
        <mxCell id="vxhg9_nKQ87Y8Qyns_xk-28" style="rounded=0;orthogonalLoop=1;jettySize=auto;html=1;entryX=0;entryY=0.5;entryDx=0;entryDy=0;labelBackgroundColor=none;fontColor=default;" parent="1" source="Pf63q6bYd26DnOZfkLJH-1" target="vxhg9_nKQ87Y8Qyns_xk-15" edge="1">
          <mxGeometry relative="1" as="geometry" />
        </mxCell>
        <mxCell id="vxhg9_nKQ87Y8Qyns_xk-29" style="rounded=0;orthogonalLoop=1;jettySize=auto;html=1;entryX=0.5;entryY=0;entryDx=0;entryDy=0;labelBackgroundColor=none;fontColor=default;" parent="1" source="Pf63q6bYd26DnOZfkLJH-1" target="vxhg9_nKQ87Y8Qyns_xk-16" edge="1">
          <mxGeometry relative="1" as="geometry" />
        </mxCell>
        <mxCell id="vxhg9_nKQ87Y8Qyns_xk-30" style="rounded=0;orthogonalLoop=1;jettySize=auto;html=1;entryX=0.5;entryY=0;entryDx=0;entryDy=0;labelBackgroundColor=none;fontColor=default;" parent="1" source="Pf63q6bYd26DnOZfkLJH-1" target="vxhg9_nKQ87Y8Qyns_xk-17" edge="1">
          <mxGeometry relative="1" as="geometry" />
        </mxCell>
        <mxCell id="Pf63q6bYd26DnOZfkLJH-1" value="Member" style="whiteSpace=wrap;html=1;align=center;labelBackgroundColor=none;" parent="1" vertex="1">
          <mxGeometry x="325" y="290" width="100" height="40" as="geometry" />
        </mxCell>
        <mxCell id="Pf63q6bYd26DnOZfkLJH-2" value="Member ID" style="ellipse;whiteSpace=wrap;html=1;align=center;fontStyle=4;labelBackgroundColor=none;" parent="1" vertex="1">
          <mxGeometry x="160" y="280" width="100" height="40" as="geometry" />
        </mxCell>
        <mxCell id="vxhg9_nKQ87Y8Qyns_xk-1" value="First name" style="ellipse;whiteSpace=wrap;html=1;align=center;labelBackgroundColor=none;" parent="1" vertex="1">
          <mxGeometry x="180" y="220" width="100" height="40" as="geometry" />
        </mxCell>
        <mxCell id="vxhg9_nKQ87Y8Qyns_xk-2" value="Last Name" style="ellipse;whiteSpace=wrap;html=1;align=center;labelBackgroundColor=none;" parent="1" vertex="1">
          <mxGeometry x="280" y="190" width="100" height="40" as="geometry" />
        </mxCell>
        <mxCell id="vxhg9_nKQ87Y8Qyns_xk-11" value="Username" style="ellipse;whiteSpace=wrap;html=1;align=center;labelBackgroundColor=none;" parent="1" vertex="1">
          <mxGeometry x="390" y="170" width="100" height="40" as="geometry" />
        </mxCell>
        <mxCell id="vxhg9_nKQ87Y8Qyns_xk-12" value="Date of Birth" style="ellipse;whiteSpace=wrap;html=1;align=center;labelBackgroundColor=none;" parent="1" vertex="1">
          <mxGeometry x="480" y="210" width="100" height="40" as="geometry" />
        </mxCell>
        <mxCell id="vxhg9_nKQ87Y8Qyns_xk-13" value="Address" style="ellipse;whiteSpace=wrap;html=1;align=center;labelBackgroundColor=none;" parent="1" vertex="1">
          <mxGeometry x="510" y="260" width="100" height="40" as="geometry" />
        </mxCell>
        <mxCell id="vxhg9_nKQ87Y8Qyns_xk-14" value="Telephone Number" style="ellipse;whiteSpace=wrap;html=1;align=center;labelBackgroundColor=none;" parent="1" vertex="1">
          <mxGeometry x="530" y="320" width="100" height="40" as="geometry" />
        </mxCell>
        <mxCell id="vxhg9_nKQ87Y8Qyns_xk-15" value="Email Address" style="ellipse;whiteSpace=wrap;html=1;align=center;labelBackgroundColor=none;" parent="1" vertex="1">
          <mxGeometry x="520" y="380" width="100" height="40" as="geometry" />
        </mxCell>
        <mxCell id="vxhg9_nKQ87Y8Qyns_xk-16" value="Password" style="ellipse;whiteSpace=wrap;html=1;align=center;labelBackgroundColor=none;" parent="1" vertex="1">
          <mxGeometry x="270" y="410" width="100" height="40" as="geometry" />
        </mxCell>
        <mxCell id="vxhg9_nKQ87Y8Qyns_xk-17" value="Profile Picture" style="ellipse;whiteSpace=wrap;html=1;align=center;labelBackgroundColor=none;" parent="1" vertex="1">
          <mxGeometry x="170" y="370" width="100" height="40" as="geometry" />
        </mxCell>
        <mxCell id="vxhg9_nKQ87Y8Qyns_xk-43" value="" style="rounded=0;orthogonalLoop=1;jettySize=auto;html=1;labelBackgroundColor=none;fontColor=default;" parent="1" source="vxhg9_nKQ87Y8Qyns_xk-32" target="vxhg9_nKQ87Y8Qyns_xk-33" edge="1">
          <mxGeometry relative="1" as="geometry" />
        </mxCell>
        <mxCell id="vxhg9_nKQ87Y8Qyns_xk-45" style="rounded=0;orthogonalLoop=1;jettySize=auto;html=1;entryX=0.5;entryY=1;entryDx=0;entryDy=0;labelBackgroundColor=none;fontColor=default;" parent="1" source="vxhg9_nKQ87Y8Qyns_xk-32" target="vxhg9_nKQ87Y8Qyns_xk-34" edge="1">
          <mxGeometry relative="1" as="geometry" />
        </mxCell>
        <mxCell id="vxhg9_nKQ87Y8Qyns_xk-46" style="rounded=0;orthogonalLoop=1;jettySize=auto;html=1;entryX=0;entryY=0.5;entryDx=0;entryDy=0;labelBackgroundColor=none;fontColor=default;" parent="1" source="vxhg9_nKQ87Y8Qyns_xk-32" target="vxhg9_nKQ87Y8Qyns_xk-35" edge="1">
          <mxGeometry relative="1" as="geometry" />
        </mxCell>
        <mxCell id="vxhg9_nKQ87Y8Qyns_xk-47" style="rounded=0;orthogonalLoop=1;jettySize=auto;html=1;entryX=0;entryY=0.5;entryDx=0;entryDy=0;labelBackgroundColor=none;fontColor=default;" parent="1" source="vxhg9_nKQ87Y8Qyns_xk-32" target="vxhg9_nKQ87Y8Qyns_xk-36" edge="1">
          <mxGeometry relative="1" as="geometry" />
        </mxCell>
        <mxCell id="vxhg9_nKQ87Y8Qyns_xk-48" style="rounded=0;orthogonalLoop=1;jettySize=auto;html=1;labelBackgroundColor=none;fontColor=default;" parent="1" source="vxhg9_nKQ87Y8Qyns_xk-32" target="vxhg9_nKQ87Y8Qyns_xk-37" edge="1">
          <mxGeometry relative="1" as="geometry" />
        </mxCell>
        <mxCell id="vxhg9_nKQ87Y8Qyns_xk-49" style="rounded=0;orthogonalLoop=1;jettySize=auto;html=1;labelBackgroundColor=none;fontColor=default;" parent="1" source="vxhg9_nKQ87Y8Qyns_xk-32" target="vxhg9_nKQ87Y8Qyns_xk-38" edge="1">
          <mxGeometry relative="1" as="geometry" />
        </mxCell>
        <mxCell id="vxhg9_nKQ87Y8Qyns_xk-50" style="rounded=0;orthogonalLoop=1;jettySize=auto;html=1;entryX=0.5;entryY=0;entryDx=0;entryDy=0;labelBackgroundColor=none;fontColor=default;" parent="1" source="vxhg9_nKQ87Y8Qyns_xk-32" target="vxhg9_nKQ87Y8Qyns_xk-39" edge="1">
          <mxGeometry relative="1" as="geometry" />
        </mxCell>
        <mxCell id="vxhg9_nKQ87Y8Qyns_xk-32" value="Order" style="whiteSpace=wrap;html=1;align=center;labelBackgroundColor=none;" parent="1" vertex="1">
          <mxGeometry x="850" y="290" width="100" height="40" as="geometry" />
        </mxCell>
        <mxCell id="vxhg9_nKQ87Y8Qyns_xk-33" value="Order ID" style="ellipse;whiteSpace=wrap;html=1;align=center;fontStyle=4;labelBackgroundColor=none;" parent="1" vertex="1">
          <mxGeometry x="680" y="230" width="100" height="40" as="geometry" />
        </mxCell>
        <mxCell id="vxhg9_nKQ87Y8Qyns_xk-34" value="Member ID" style="ellipse;whiteSpace=wrap;html=1;align=center;labelBackgroundColor=none;" parent="1" vertex="1">
          <mxGeometry x="800" y="170" width="100" height="40" as="geometry" />
        </mxCell>
        <mxCell id="vxhg9_nKQ87Y8Qyns_xk-35" value="Order Date" style="ellipse;whiteSpace=wrap;html=1;align=center;labelBackgroundColor=none;" parent="1" vertex="1">
          <mxGeometry x="950" y="170" width="100" height="40" as="geometry" />
        </mxCell>
        <mxCell id="vxhg9_nKQ87Y8Qyns_xk-36" value="Order Status" style="ellipse;whiteSpace=wrap;html=1;align=center;labelBackgroundColor=none;" parent="1" vertex="1">
          <mxGeometry x="1000" y="250" width="100" height="40" as="geometry" />
        </mxCell>
        <mxCell id="vxhg9_nKQ87Y8Qyns_xk-37" value="Products" style="ellipse;whiteSpace=wrap;html=1;align=center;labelBackgroundColor=none;" parent="1" vertex="1">
          <mxGeometry x="980" y="360" width="100" height="40" as="geometry" />
        </mxCell>
        <mxCell id="vxhg9_nKQ87Y8Qyns_xk-38" value="Total Amount" style="ellipse;whiteSpace=wrap;html=1;align=center;labelBackgroundColor=none;" parent="1" vertex="1">
          <mxGeometry x="850" y="400" width="100" height="40" as="geometry" />
        </mxCell>
        <mxCell id="vxhg9_nKQ87Y8Qyns_xk-39" value="Shipping Address" style="ellipse;whiteSpace=wrap;html=1;align=center;labelBackgroundColor=none;" parent="1" vertex="1">
          <mxGeometry x="720" y="360" width="100" height="40" as="geometry" />
        </mxCell>
        <mxCell id="vxhg9_nKQ87Y8Qyns_xk-52" value="" style="fontSize=12;html=1;endArrow=ERoneToMany;rounded=0;exitX=1;exitY=0.5;exitDx=0;exitDy=0;entryX=0;entryY=0.5;entryDx=0;entryDy=0;labelBackgroundColor=none;fontColor=default;" parent="1" source="Pf63q6bYd26DnOZfkLJH-1" target="vxhg9_nKQ87Y8Qyns_xk-32" edge="1">
          <mxGeometry width="100" height="100" relative="1" as="geometry">
            <mxPoint x="780" y="440" as="sourcePoint" />
            <mxPoint x="880" y="340" as="targetPoint" />
          </mxGeometry>
        </mxCell>
        <mxCell id="vxhg9_nKQ87Y8Qyns_xk-70" style="rounded=0;orthogonalLoop=1;jettySize=auto;html=1;entryX=1;entryY=0.5;entryDx=0;entryDy=0;labelBackgroundColor=none;fontColor=default;" parent="1" source="vxhg9_nKQ87Y8Qyns_xk-53" target="vxhg9_nKQ87Y8Qyns_xk-55" edge="1">
          <mxGeometry relative="1" as="geometry" />
        </mxCell>
        <mxCell id="vxhg9_nKQ87Y8Qyns_xk-71" style="rounded=0;orthogonalLoop=1;jettySize=auto;html=1;entryX=1;entryY=0.5;entryDx=0;entryDy=0;labelBackgroundColor=none;fontColor=default;" parent="1" source="vxhg9_nKQ87Y8Qyns_xk-53" target="vxhg9_nKQ87Y8Qyns_xk-60" edge="1">
          <mxGeometry relative="1" as="geometry" />
        </mxCell>
        <mxCell id="vxhg9_nKQ87Y8Qyns_xk-72" style="rounded=0;orthogonalLoop=1;jettySize=auto;html=1;entryX=0.5;entryY=1;entryDx=0;entryDy=0;labelBackgroundColor=none;fontColor=default;" parent="1" source="vxhg9_nKQ87Y8Qyns_xk-53" target="vxhg9_nKQ87Y8Qyns_xk-61" edge="1">
          <mxGeometry relative="1" as="geometry" />
        </mxCell>
        <mxCell id="vxhg9_nKQ87Y8Qyns_xk-74" style="rounded=0;orthogonalLoop=1;jettySize=auto;html=1;entryX=0.5;entryY=1;entryDx=0;entryDy=0;labelBackgroundColor=none;fontColor=default;" parent="1" source="vxhg9_nKQ87Y8Qyns_xk-53" target="vxhg9_nKQ87Y8Qyns_xk-62" edge="1">
          <mxGeometry relative="1" as="geometry" />
        </mxCell>
        <mxCell id="vxhg9_nKQ87Y8Qyns_xk-75" style="rounded=0;orthogonalLoop=1;jettySize=auto;html=1;entryX=0;entryY=0.5;entryDx=0;entryDy=0;labelBackgroundColor=none;fontColor=default;" parent="1" source="vxhg9_nKQ87Y8Qyns_xk-53" target="vxhg9_nKQ87Y8Qyns_xk-63" edge="1">
          <mxGeometry relative="1" as="geometry" />
        </mxCell>
        <mxCell id="vxhg9_nKQ87Y8Qyns_xk-76" style="rounded=0;orthogonalLoop=1;jettySize=auto;html=1;entryX=0;entryY=0.5;entryDx=0;entryDy=0;labelBackgroundColor=none;fontColor=default;" parent="1" source="vxhg9_nKQ87Y8Qyns_xk-53" target="vxhg9_nKQ87Y8Qyns_xk-64" edge="1">
          <mxGeometry relative="1" as="geometry" />
        </mxCell>
        <mxCell id="vxhg9_nKQ87Y8Qyns_xk-77" style="rounded=0;orthogonalLoop=1;jettySize=auto;html=1;entryX=0;entryY=0.5;entryDx=0;entryDy=0;labelBackgroundColor=none;fontColor=default;" parent="1" source="vxhg9_nKQ87Y8Qyns_xk-53" target="vxhg9_nKQ87Y8Qyns_xk-65" edge="1">
          <mxGeometry relative="1" as="geometry" />
        </mxCell>
        <mxCell id="vxhg9_nKQ87Y8Qyns_xk-78" style="rounded=0;orthogonalLoop=1;jettySize=auto;html=1;entryX=0.5;entryY=0;entryDx=0;entryDy=0;labelBackgroundColor=none;fontColor=default;" parent="1" source="vxhg9_nKQ87Y8Qyns_xk-53" target="vxhg9_nKQ87Y8Qyns_xk-66" edge="1">
          <mxGeometry relative="1" as="geometry" />
        </mxCell>
        <mxCell id="vxhg9_nKQ87Y8Qyns_xk-80" style="rounded=0;orthogonalLoop=1;jettySize=auto;html=1;entryX=0.5;entryY=0;entryDx=0;entryDy=0;labelBackgroundColor=none;fontColor=default;" parent="1" source="vxhg9_nKQ87Y8Qyns_xk-53" target="vxhg9_nKQ87Y8Qyns_xk-67" edge="1">
          <mxGeometry relative="1" as="geometry" />
        </mxCell>
        <mxCell id="vxhg9_nKQ87Y8Qyns_xk-81" style="rounded=0;orthogonalLoop=1;jettySize=auto;html=1;entryX=1;entryY=0.5;entryDx=0;entryDy=0;labelBackgroundColor=none;fontColor=default;" parent="1" source="vxhg9_nKQ87Y8Qyns_xk-53" target="vxhg9_nKQ87Y8Qyns_xk-68" edge="1">
          <mxGeometry relative="1" as="geometry" />
        </mxCell>
        <mxCell id="vxhg9_nKQ87Y8Qyns_xk-82" style="rounded=0;orthogonalLoop=1;jettySize=auto;html=1;entryX=1;entryY=0.5;entryDx=0;entryDy=0;labelBackgroundColor=none;fontColor=default;" parent="1" source="vxhg9_nKQ87Y8Qyns_xk-53" target="vxhg9_nKQ87Y8Qyns_xk-69" edge="1">
          <mxGeometry relative="1" as="geometry" />
        </mxCell>
        <mxCell id="vxhg9_nKQ87Y8Qyns_xk-53" value="Product" style="whiteSpace=wrap;html=1;align=center;labelBackgroundColor=none;" parent="1" vertex="1">
          <mxGeometry x="1360" y="290" width="100" height="40" as="geometry" />
        </mxCell>
        <mxCell id="vxhg9_nKQ87Y8Qyns_xk-54" value="" style="fontSize=12;html=1;endArrow=ERoneToMany;rounded=0;exitX=1;exitY=0.5;exitDx=0;exitDy=0;entryX=0;entryY=0.5;entryDx=0;entryDy=0;labelBackgroundColor=none;fontColor=default;" parent="1" source="vxhg9_nKQ87Y8Qyns_xk-32" target="vxhg9_nKQ87Y8Qyns_xk-53" edge="1">
          <mxGeometry width="100" height="100" relative="1" as="geometry">
            <mxPoint x="780" y="440" as="sourcePoint" />
            <mxPoint x="880" y="340" as="targetPoint" />
          </mxGeometry>
        </mxCell>
        <mxCell id="vxhg9_nKQ87Y8Qyns_xk-55" value="Product ID" style="ellipse;whiteSpace=wrap;html=1;align=center;fontStyle=4;labelBackgroundColor=none;" parent="1" vertex="1">
          <mxGeometry x="1175" y="230" width="100" height="40" as="geometry" />
        </mxCell>
        <mxCell id="vxhg9_nKQ87Y8Qyns_xk-60" value="Product Name" style="ellipse;whiteSpace=wrap;html=1;align=center;labelBackgroundColor=none;" parent="1" vertex="1">
          <mxGeometry x="1200" y="170" width="100" height="40" as="geometry" />
        </mxCell>
        <mxCell id="vxhg9_nKQ87Y8Qyns_xk-61" value="Price" style="ellipse;whiteSpace=wrap;html=1;align=center;labelBackgroundColor=none;" parent="1" vertex="1">
          <mxGeometry x="1320" y="150" width="100" height="40" as="geometry" />
        </mxCell>
        <mxCell id="vxhg9_nKQ87Y8Qyns_xk-62" value="Description" style="ellipse;whiteSpace=wrap;html=1;align=center;labelBackgroundColor=none;" parent="1" vertex="1">
          <mxGeometry x="1440" y="160" width="100" height="40" as="geometry" />
        </mxCell>
        <mxCell id="vxhg9_nKQ87Y8Qyns_xk-63" value="Category" style="ellipse;whiteSpace=wrap;html=1;align=center;labelBackgroundColor=none;" parent="1" vertex="1">
          <mxGeometry x="1540" y="220" width="100" height="40" as="geometry" />
        </mxCell>
        <mxCell id="vxhg9_nKQ87Y8Qyns_xk-64" value="Tags" style="ellipse;whiteSpace=wrap;html=1;align=center;labelBackgroundColor=none;" parent="1" vertex="1">
          <mxGeometry x="1550" y="290" width="100" height="40" as="geometry" />
        </mxCell>
        <mxCell id="vxhg9_nKQ87Y8Qyns_xk-65" value="Availability" style="ellipse;whiteSpace=wrap;html=1;align=center;labelBackgroundColor=none;" parent="1" vertex="1">
          <mxGeometry x="1540" y="370" width="100" height="40" as="geometry" />
        </mxCell>
        <mxCell id="vxhg9_nKQ87Y8Qyns_xk-66" value="Rating" style="ellipse;whiteSpace=wrap;html=1;align=center;labelBackgroundColor=none;" parent="1" vertex="1">
          <mxGeometry x="1430" y="430" width="100" height="40" as="geometry" />
        </mxCell>
        <mxCell id="vxhg9_nKQ87Y8Qyns_xk-67" value="Reviews" style="ellipse;whiteSpace=wrap;html=1;align=center;labelBackgroundColor=none;" parent="1" vertex="1">
          <mxGeometry x="1300" y="430" width="100" height="40" as="geometry" />
        </mxCell>
        <mxCell id="vxhg9_nKQ87Y8Qyns_xk-68" value="Supplier" style="ellipse;whiteSpace=wrap;html=1;align=center;labelBackgroundColor=none;" parent="1" vertex="1">
          <mxGeometry x="1190" y="380" width="100" height="40" as="geometry" />
        </mxCell>
        <mxCell id="vxhg9_nKQ87Y8Qyns_xk-69" value="Picture" style="ellipse;whiteSpace=wrap;html=1;align=center;labelBackgroundColor=none;" parent="1" vertex="1">
          <mxGeometry x="1160" y="320" width="100" height="40" as="geometry" />
        </mxCell>
        <mxCell id="vxhg9_nKQ87Y8Qyns_xk-94" style="rounded=0;orthogonalLoop=1;jettySize=auto;html=1;entryX=1;entryY=0.5;entryDx=0;entryDy=0;labelBackgroundColor=none;fontColor=default;" parent="1" source="vxhg9_nKQ87Y8Qyns_xk-84" target="vxhg9_nKQ87Y8Qyns_xk-87" edge="1">
          <mxGeometry relative="1" as="geometry" />
        </mxCell>
        <mxCell id="vxhg9_nKQ87Y8Qyns_xk-95" style="rounded=0;orthogonalLoop=1;jettySize=auto;html=1;entryX=0.5;entryY=1;entryDx=0;entryDy=0;labelBackgroundColor=none;fontColor=default;" parent="1" source="vxhg9_nKQ87Y8Qyns_xk-84" target="vxhg9_nKQ87Y8Qyns_xk-88" edge="1">
          <mxGeometry relative="1" as="geometry" />
        </mxCell>
        <mxCell id="vxhg9_nKQ87Y8Qyns_xk-96" style="rounded=0;orthogonalLoop=1;jettySize=auto;html=1;entryX=0.5;entryY=1;entryDx=0;entryDy=0;labelBackgroundColor=none;fontColor=default;" parent="1" source="vxhg9_nKQ87Y8Qyns_xk-84" target="vxhg9_nKQ87Y8Qyns_xk-89" edge="1">
          <mxGeometry relative="1" as="geometry" />
        </mxCell>
        <mxCell id="vxhg9_nKQ87Y8Qyns_xk-97" style="rounded=0;orthogonalLoop=1;jettySize=auto;html=1;entryX=0;entryY=0.5;entryDx=0;entryDy=0;labelBackgroundColor=none;fontColor=default;" parent="1" source="vxhg9_nKQ87Y8Qyns_xk-84" target="vxhg9_nKQ87Y8Qyns_xk-90" edge="1">
          <mxGeometry relative="1" as="geometry" />
        </mxCell>
        <mxCell id="vxhg9_nKQ87Y8Qyns_xk-98" style="rounded=0;orthogonalLoop=1;jettySize=auto;html=1;entryX=0.5;entryY=0;entryDx=0;entryDy=0;labelBackgroundColor=none;fontColor=default;" parent="1" source="vxhg9_nKQ87Y8Qyns_xk-84" target="vxhg9_nKQ87Y8Qyns_xk-91" edge="1">
          <mxGeometry relative="1" as="geometry" />
        </mxCell>
        <mxCell id="vxhg9_nKQ87Y8Qyns_xk-99" style="rounded=0;orthogonalLoop=1;jettySize=auto;html=1;labelBackgroundColor=none;fontColor=default;" parent="1" source="vxhg9_nKQ87Y8Qyns_xk-84" target="vxhg9_nKQ87Y8Qyns_xk-92" edge="1">
          <mxGeometry relative="1" as="geometry" />
        </mxCell>
        <mxCell id="vxhg9_nKQ87Y8Qyns_xk-84" value="Payment" style="whiteSpace=wrap;html=1;align=center;labelBackgroundColor=none;" parent="1" vertex="1">
          <mxGeometry x="620" y="570" width="100" height="40" as="geometry" />
        </mxCell>
        <mxCell id="vxhg9_nKQ87Y8Qyns_xk-86" value="" style="fontSize=12;html=1;endArrow=ERmandOne;startArrow=ERmandOne;rounded=0;entryX=0.5;entryY=1;entryDx=0;entryDy=0;exitX=0.5;exitY=0;exitDx=0;exitDy=0;labelBackgroundColor=none;fontColor=default;" parent="1" source="vxhg9_nKQ87Y8Qyns_xk-84" target="vxhg9_nKQ87Y8Qyns_xk-32" edge="1">
          <mxGeometry width="100" height="100" relative="1" as="geometry">
            <mxPoint x="830" y="470" as="sourcePoint" />
            <mxPoint x="930" y="370" as="targetPoint" />
          </mxGeometry>
        </mxCell>
        <mxCell id="vxhg9_nKQ87Y8Qyns_xk-87" value="Payment ID" style="ellipse;whiteSpace=wrap;html=1;align=center;fontStyle=4;labelBackgroundColor=none;" parent="1" vertex="1">
          <mxGeometry x="450" y="550" width="100" height="40" as="geometry" />
        </mxCell>
        <mxCell id="vxhg9_nKQ87Y8Qyns_xk-88" value="Order ID" style="ellipse;whiteSpace=wrap;html=1;align=center;labelBackgroundColor=none;" parent="1" vertex="1">
          <mxGeometry x="570" y="480" width="100" height="40" as="geometry" />
        </mxCell>
        <mxCell id="vxhg9_nKQ87Y8Qyns_xk-89" value="Amount" style="ellipse;whiteSpace=wrap;html=1;align=center;labelBackgroundColor=none;" parent="1" vertex="1">
          <mxGeometry x="750" y="490" width="100" height="40" as="geometry" />
        </mxCell>
        <mxCell id="vxhg9_nKQ87Y8Qyns_xk-90" value="Currency" style="ellipse;whiteSpace=wrap;html=1;align=center;labelBackgroundColor=none;" parent="1" vertex="1">
          <mxGeometry x="760" y="570" width="100" height="40" as="geometry" />
        </mxCell>
        <mxCell id="vxhg9_nKQ87Y8Qyns_xk-91" value="Payment Method" style="ellipse;whiteSpace=wrap;html=1;align=center;labelBackgroundColor=none;" parent="1" vertex="1">
          <mxGeometry x="670" y="650" width="100" height="40" as="geometry" />
        </mxCell>
        <mxCell id="vxhg9_nKQ87Y8Qyns_xk-92" value="Payment Date" style="ellipse;whiteSpace=wrap;html=1;align=center;labelBackgroundColor=none;" parent="1" vertex="1">
          <mxGeometry x="520" y="640" width="100" height="40" as="geometry" />
        </mxCell>
        <mxCell id="xvgSW02Jdr_Vk1jisue1-54" style="rounded=0;orthogonalLoop=1;jettySize=auto;html=1;entryX=0.5;entryY=1;entryDx=0;entryDy=0;" edge="1" parent="1" source="xvgSW02Jdr_Vk1jisue1-48" target="xvgSW02Jdr_Vk1jisue1-49">
          <mxGeometry relative="1" as="geometry" />
        </mxCell>
        <mxCell id="xvgSW02Jdr_Vk1jisue1-55" style="rounded=0;orthogonalLoop=1;jettySize=auto;html=1;entryX=0.5;entryY=1;entryDx=0;entryDy=0;" edge="1" parent="1" source="xvgSW02Jdr_Vk1jisue1-48" target="xvgSW02Jdr_Vk1jisue1-51">
          <mxGeometry relative="1" as="geometry" />
        </mxCell>
        <mxCell id="xvgSW02Jdr_Vk1jisue1-57" style="rounded=0;orthogonalLoop=1;jettySize=auto;html=1;entryX=0.5;entryY=0;entryDx=0;entryDy=0;" edge="1" parent="1" source="xvgSW02Jdr_Vk1jisue1-48" target="xvgSW02Jdr_Vk1jisue1-50">
          <mxGeometry relative="1" as="geometry" />
        </mxCell>
        <mxCell id="xvgSW02Jdr_Vk1jisue1-58" style="rounded=0;orthogonalLoop=1;jettySize=auto;html=1;entryX=0.5;entryY=0;entryDx=0;entryDy=0;" edge="1" parent="1" source="xvgSW02Jdr_Vk1jisue1-48" target="xvgSW02Jdr_Vk1jisue1-53">
          <mxGeometry relative="1" as="geometry" />
        </mxCell>
        <mxCell id="xvgSW02Jdr_Vk1jisue1-48" value="Rating" style="whiteSpace=wrap;html=1;align=center;" vertex="1" parent="1">
          <mxGeometry x="1225" y="-50" width="100" height="40" as="geometry" />
        </mxCell>
        <mxCell id="xvgSW02Jdr_Vk1jisue1-49" value="Rating ID" style="ellipse;whiteSpace=wrap;html=1;align=center;fontStyle=4;" vertex="1" parent="1">
          <mxGeometry x="1110" y="-140" width="100" height="40" as="geometry" />
        </mxCell>
        <mxCell id="xvgSW02Jdr_Vk1jisue1-50" value="Product ID" style="ellipse;whiteSpace=wrap;html=1;align=center;" vertex="1" parent="1">
          <mxGeometry x="1350" y="20" width="100" height="40" as="geometry" />
        </mxCell>
        <mxCell id="xvgSW02Jdr_Vk1jisue1-51" value="Member ID" style="ellipse;whiteSpace=wrap;html=1;align=center;" vertex="1" parent="1">
          <mxGeometry x="1320" y="-130" width="100" height="40" as="geometry" />
        </mxCell>
        <mxCell id="xvgSW02Jdr_Vk1jisue1-53" value="Rating" style="ellipse;whiteSpace=wrap;html=1;align=center;" vertex="1" parent="1">
          <mxGeometry x="1100" y="20" width="100" height="40" as="geometry" />
        </mxCell>
        <mxCell id="xvgSW02Jdr_Vk1jisue1-59" style="rounded=0;orthogonalLoop=1;jettySize=auto;html=1;entryX=0.5;entryY=1;entryDx=0;entryDy=0;" edge="1" parent="1" source="xvgSW02Jdr_Vk1jisue1-63" target="xvgSW02Jdr_Vk1jisue1-64">
          <mxGeometry relative="1" as="geometry" />
        </mxCell>
        <mxCell id="xvgSW02Jdr_Vk1jisue1-60" style="rounded=0;orthogonalLoop=1;jettySize=auto;html=1;entryX=0.5;entryY=1;entryDx=0;entryDy=0;" edge="1" parent="1" source="xvgSW02Jdr_Vk1jisue1-63" target="xvgSW02Jdr_Vk1jisue1-66">
          <mxGeometry relative="1" as="geometry" />
        </mxCell>
        <mxCell id="xvgSW02Jdr_Vk1jisue1-61" style="rounded=0;orthogonalLoop=1;jettySize=auto;html=1;entryX=0.5;entryY=0;entryDx=0;entryDy=0;" edge="1" parent="1" source="xvgSW02Jdr_Vk1jisue1-63" target="xvgSW02Jdr_Vk1jisue1-65">
          <mxGeometry relative="1" as="geometry" />
        </mxCell>
        <mxCell id="xvgSW02Jdr_Vk1jisue1-62" style="rounded=0;orthogonalLoop=1;jettySize=auto;html=1;entryX=0.5;entryY=0;entryDx=0;entryDy=0;" edge="1" parent="1" source="xvgSW02Jdr_Vk1jisue1-63" target="xvgSW02Jdr_Vk1jisue1-67">
          <mxGeometry relative="1" as="geometry" />
        </mxCell>
        <mxCell id="xvgSW02Jdr_Vk1jisue1-63" value="Review" style="whiteSpace=wrap;html=1;align=center;" vertex="1" parent="1">
          <mxGeometry x="1625" y="-60" width="100" height="40" as="geometry" />
        </mxCell>
        <mxCell id="xvgSW02Jdr_Vk1jisue1-64" value="Review ID" style="ellipse;whiteSpace=wrap;html=1;align=center;fontStyle=4;" vertex="1" parent="1">
          <mxGeometry x="1510" y="-150" width="100" height="40" as="geometry" />
        </mxCell>
        <mxCell id="xvgSW02Jdr_Vk1jisue1-65" value="Product ID" style="ellipse;whiteSpace=wrap;html=1;align=center;" vertex="1" parent="1">
          <mxGeometry x="1750" y="10" width="100" height="40" as="geometry" />
        </mxCell>
        <mxCell id="xvgSW02Jdr_Vk1jisue1-66" value="Member ID" style="ellipse;whiteSpace=wrap;html=1;align=center;" vertex="1" parent="1">
          <mxGeometry x="1720" y="-140" width="100" height="40" as="geometry" />
        </mxCell>
        <mxCell id="xvgSW02Jdr_Vk1jisue1-67" value="Review" style="ellipse;whiteSpace=wrap;html=1;align=center;" vertex="1" parent="1">
          <mxGeometry x="1500" y="10" width="100" height="40" as="geometry" />
        </mxCell>
        <mxCell id="xvgSW02Jdr_Vk1jisue1-68" value="" style="fontSize=12;html=1;endArrow=ERoneToMany;rounded=0;exitX=0.5;exitY=0;exitDx=0;exitDy=0;entryX=0.5;entryY=1;entryDx=0;entryDy=0;" edge="1" parent="1" source="vxhg9_nKQ87Y8Qyns_xk-53" target="xvgSW02Jdr_Vk1jisue1-48">
          <mxGeometry width="100" height="100" relative="1" as="geometry">
            <mxPoint x="1560" y="330" as="sourcePoint" />
            <mxPoint x="1660" y="230" as="targetPoint" />
          </mxGeometry>
        </mxCell>
        <mxCell id="xvgSW02Jdr_Vk1jisue1-69" value="" style="fontSize=12;html=1;endArrow=ERoneToMany;rounded=0;exitX=0.5;exitY=0;exitDx=0;exitDy=0;entryX=0.5;entryY=1;entryDx=0;entryDy=0;" edge="1" parent="1" source="vxhg9_nKQ87Y8Qyns_xk-53" target="xvgSW02Jdr_Vk1jisue1-63">
          <mxGeometry width="100" height="100" relative="1" as="geometry">
            <mxPoint x="1560" y="330" as="sourcePoint" />
            <mxPoint x="1660" y="230" as="targetPoint" />
          </mxGeometry>
        </mxCell>
        <mxCell id="xvgSW02Jdr_Vk1jisue1-111" style="rounded=0;orthogonalLoop=1;jettySize=auto;html=1;entryX=0.5;entryY=1;entryDx=0;entryDy=0;" edge="1" parent="1" source="xvgSW02Jdr_Vk1jisue1-131" target="xvgSW02Jdr_Vk1jisue1-134">
          <mxGeometry relative="1" as="geometry" />
        </mxCell>
        <mxCell id="xvgSW02Jdr_Vk1jisue1-112" style="rounded=0;orthogonalLoop=1;jettySize=auto;html=1;entryX=0.5;entryY=1;entryDx=0;entryDy=0;" edge="1" parent="1" source="xvgSW02Jdr_Vk1jisue1-131" target="xvgSW02Jdr_Vk1jisue1-135">
          <mxGeometry relative="1" as="geometry" />
        </mxCell>
        <mxCell id="xvgSW02Jdr_Vk1jisue1-113" style="rounded=0;orthogonalLoop=1;jettySize=auto;html=1;entryX=0;entryY=0.5;entryDx=0;entryDy=0;" edge="1" parent="1" source="xvgSW02Jdr_Vk1jisue1-131" target="xvgSW02Jdr_Vk1jisue1-137">
          <mxGeometry relative="1" as="geometry" />
        </mxCell>
        <mxCell id="xvgSW02Jdr_Vk1jisue1-114" style="rounded=0;orthogonalLoop=1;jettySize=auto;html=1;entryX=0;entryY=0.5;entryDx=0;entryDy=0;" edge="1" parent="1" source="xvgSW02Jdr_Vk1jisue1-131" target="xvgSW02Jdr_Vk1jisue1-138">
          <mxGeometry relative="1" as="geometry" />
        </mxCell>
        <mxCell id="xvgSW02Jdr_Vk1jisue1-115" style="rounded=0;orthogonalLoop=1;jettySize=auto;html=1;entryX=0;entryY=0.5;entryDx=0;entryDy=0;" edge="1" parent="1" source="xvgSW02Jdr_Vk1jisue1-131" target="xvgSW02Jdr_Vk1jisue1-136">
          <mxGeometry relative="1" as="geometry" />
        </mxCell>
        <mxCell id="xvgSW02Jdr_Vk1jisue1-116" style="rounded=0;orthogonalLoop=1;jettySize=auto;html=1;entryX=0;entryY=0.5;entryDx=0;entryDy=0;" edge="1" parent="1" source="xvgSW02Jdr_Vk1jisue1-131" target="xvgSW02Jdr_Vk1jisue1-139">
          <mxGeometry relative="1" as="geometry" />
        </mxCell>
        <mxCell id="xvgSW02Jdr_Vk1jisue1-117" style="rounded=0;orthogonalLoop=1;jettySize=auto;html=1;entryX=0;entryY=0.5;entryDx=0;entryDy=0;" edge="1" parent="1" source="xvgSW02Jdr_Vk1jisue1-131" target="xvgSW02Jdr_Vk1jisue1-140">
          <mxGeometry relative="1" as="geometry" />
        </mxCell>
        <mxCell id="xvgSW02Jdr_Vk1jisue1-118" style="rounded=0;orthogonalLoop=1;jettySize=auto;html=1;entryX=0;entryY=0.5;entryDx=0;entryDy=0;" edge="1" parent="1" source="xvgSW02Jdr_Vk1jisue1-131" target="xvgSW02Jdr_Vk1jisue1-141">
          <mxGeometry relative="1" as="geometry" />
        </mxCell>
        <mxCell id="xvgSW02Jdr_Vk1jisue1-119" style="rounded=0;orthogonalLoop=1;jettySize=auto;html=1;entryX=0;entryY=0.5;entryDx=0;entryDy=0;" edge="1" parent="1" source="xvgSW02Jdr_Vk1jisue1-131" target="xvgSW02Jdr_Vk1jisue1-142">
          <mxGeometry relative="1" as="geometry" />
        </mxCell>
        <mxCell id="xvgSW02Jdr_Vk1jisue1-120" style="rounded=0;orthogonalLoop=1;jettySize=auto;html=1;" edge="1" parent="1" source="xvgSW02Jdr_Vk1jisue1-131" target="xvgSW02Jdr_Vk1jisue1-143">
          <mxGeometry relative="1" as="geometry" />
        </mxCell>
        <mxCell id="xvgSW02Jdr_Vk1jisue1-121" style="rounded=0;orthogonalLoop=1;jettySize=auto;html=1;entryX=0.404;entryY=-0.03;entryDx=0;entryDy=0;entryPerimeter=0;" edge="1" parent="1" source="xvgSW02Jdr_Vk1jisue1-131" target="xvgSW02Jdr_Vk1jisue1-144">
          <mxGeometry relative="1" as="geometry" />
        </mxCell>
        <mxCell id="xvgSW02Jdr_Vk1jisue1-122" style="rounded=0;orthogonalLoop=1;jettySize=auto;html=1;" edge="1" parent="1" source="xvgSW02Jdr_Vk1jisue1-131" target="xvgSW02Jdr_Vk1jisue1-145">
          <mxGeometry relative="1" as="geometry" />
        </mxCell>
        <mxCell id="xvgSW02Jdr_Vk1jisue1-123" style="rounded=0;orthogonalLoop=1;jettySize=auto;html=1;entryX=0.5;entryY=0;entryDx=0;entryDy=0;" edge="1" parent="1" source="xvgSW02Jdr_Vk1jisue1-131" target="xvgSW02Jdr_Vk1jisue1-151">
          <mxGeometry relative="1" as="geometry" />
        </mxCell>
        <mxCell id="xvgSW02Jdr_Vk1jisue1-124" style="rounded=0;orthogonalLoop=1;jettySize=auto;html=1;" edge="1" parent="1" source="xvgSW02Jdr_Vk1jisue1-131" target="xvgSW02Jdr_Vk1jisue1-150">
          <mxGeometry relative="1" as="geometry" />
        </mxCell>
        <mxCell id="xvgSW02Jdr_Vk1jisue1-125" style="rounded=0;orthogonalLoop=1;jettySize=auto;html=1;entryX=1;entryY=0.5;entryDx=0;entryDy=0;" edge="1" parent="1" source="xvgSW02Jdr_Vk1jisue1-131" target="xvgSW02Jdr_Vk1jisue1-149">
          <mxGeometry relative="1" as="geometry" />
        </mxCell>
        <mxCell id="xvgSW02Jdr_Vk1jisue1-126" style="rounded=0;orthogonalLoop=1;jettySize=auto;html=1;entryX=1;entryY=0.5;entryDx=0;entryDy=0;" edge="1" parent="1" source="xvgSW02Jdr_Vk1jisue1-131" target="xvgSW02Jdr_Vk1jisue1-148">
          <mxGeometry relative="1" as="geometry" />
        </mxCell>
        <mxCell id="xvgSW02Jdr_Vk1jisue1-127" style="rounded=0;orthogonalLoop=1;jettySize=auto;html=1;entryX=1;entryY=0.5;entryDx=0;entryDy=0;" edge="1" parent="1" source="xvgSW02Jdr_Vk1jisue1-131" target="xvgSW02Jdr_Vk1jisue1-147">
          <mxGeometry relative="1" as="geometry" />
        </mxCell>
        <mxCell id="xvgSW02Jdr_Vk1jisue1-128" style="rounded=0;orthogonalLoop=1;jettySize=auto;html=1;entryX=1;entryY=0.5;entryDx=0;entryDy=0;" edge="1" parent="1" source="xvgSW02Jdr_Vk1jisue1-131" target="xvgSW02Jdr_Vk1jisue1-146">
          <mxGeometry relative="1" as="geometry" />
        </mxCell>
        <mxCell id="xvgSW02Jdr_Vk1jisue1-129" style="rounded=0;orthogonalLoop=1;jettySize=auto;html=1;entryX=1;entryY=0.5;entryDx=0;entryDy=0;" edge="1" parent="1" source="xvgSW02Jdr_Vk1jisue1-131" target="xvgSW02Jdr_Vk1jisue1-132">
          <mxGeometry relative="1" as="geometry" />
        </mxCell>
        <mxCell id="xvgSW02Jdr_Vk1jisue1-130" style="rounded=0;orthogonalLoop=1;jettySize=auto;html=1;entryX=1;entryY=0.5;entryDx=0;entryDy=0;" edge="1" parent="1" source="xvgSW02Jdr_Vk1jisue1-131" target="xvgSW02Jdr_Vk1jisue1-133">
          <mxGeometry relative="1" as="geometry" />
        </mxCell>
        <mxCell id="xvgSW02Jdr_Vk1jisue1-131" value="Plant" style="whiteSpace=wrap;html=1;align=center;" vertex="1" parent="1">
          <mxGeometry x="395" y="-110" width="100" height="40" as="geometry" />
        </mxCell>
        <mxCell id="xvgSW02Jdr_Vk1jisue1-132" value="Plant ID" style="ellipse;whiteSpace=wrap;html=1;align=center;fontStyle=4;" vertex="1" parent="1">
          <mxGeometry x="190" y="-230" width="100" height="40" as="geometry" />
        </mxCell>
        <mxCell id="xvgSW02Jdr_Vk1jisue1-133" value="Name" style="ellipse;whiteSpace=wrap;html=1;align=center;" vertex="1" parent="1">
          <mxGeometry x="210" y="-280" width="100" height="40" as="geometry" />
        </mxCell>
        <mxCell id="xvgSW02Jdr_Vk1jisue1-134" value="Scientific Name" style="ellipse;whiteSpace=wrap;html=1;align=center;" vertex="1" parent="1">
          <mxGeometry x="300" y="-320" width="100" height="40" as="geometry" />
        </mxCell>
        <mxCell id="xvgSW02Jdr_Vk1jisue1-135" value="Description" style="ellipse;whiteSpace=wrap;html=1;align=center;" vertex="1" parent="1">
          <mxGeometry x="400" y="-330" width="100" height="40" as="geometry" />
        </mxCell>
        <mxCell id="xvgSW02Jdr_Vk1jisue1-136" value="Growth Cycle" style="ellipse;whiteSpace=wrap;html=1;align=center;" vertex="1" parent="1">
          <mxGeometry x="620" y="-220" width="100" height="40" as="geometry" />
        </mxCell>
        <mxCell id="xvgSW02Jdr_Vk1jisue1-137" value="Category" style="ellipse;whiteSpace=wrap;html=1;align=center;" vertex="1" parent="1">
          <mxGeometry x="520" y="-310" width="100" height="40" as="geometry" />
        </mxCell>
        <mxCell id="xvgSW02Jdr_Vk1jisue1-138" value="Care Instructions" style="ellipse;whiteSpace=wrap;html=1;align=center;" vertex="1" parent="1">
          <mxGeometry x="560" y="-270" width="100" height="40" as="geometry" />
        </mxCell>
        <mxCell id="xvgSW02Jdr_Vk1jisue1-139" value="Average Height" style="ellipse;whiteSpace=wrap;html=1;align=center;" vertex="1" parent="1">
          <mxGeometry x="595" y="-170" width="100" height="40" as="geometry" />
        </mxCell>
        <mxCell id="xvgSW02Jdr_Vk1jisue1-140" value="Bloom Time" style="ellipse;whiteSpace=wrap;html=1;align=center;" vertex="1" parent="1">
          <mxGeometry x="580" y="-110" width="100" height="40" as="geometry" />
        </mxCell>
        <mxCell id="xvgSW02Jdr_Vk1jisue1-141" value="Flower Color" style="ellipse;whiteSpace=wrap;html=1;align=center;" vertex="1" parent="1">
          <mxGeometry x="580" y="-50" width="100" height="40" as="geometry" />
        </mxCell>
        <mxCell id="xvgSW02Jdr_Vk1jisue1-142" value="Foliage Color" style="ellipse;whiteSpace=wrap;html=1;align=center;" vertex="1" parent="1">
          <mxGeometry x="610" width="100" height="40" as="geometry" />
        </mxCell>
        <mxCell id="xvgSW02Jdr_Vk1jisue1-143" value="Planting Season" style="ellipse;whiteSpace=wrap;html=1;align=center;" vertex="1" parent="1">
          <mxGeometry x="580" y="50" width="100" height="40" as="geometry" />
        </mxCell>
        <mxCell id="xvgSW02Jdr_Vk1jisue1-144" value="Soil Type" style="ellipse;whiteSpace=wrap;html=1;align=center;" vertex="1" parent="1">
          <mxGeometry x="480" y="70" width="100" height="40" as="geometry" />
        </mxCell>
        <mxCell id="xvgSW02Jdr_Vk1jisue1-145" value="Hardiness Zone" style="ellipse;whiteSpace=wrap;html=1;align=center;" vertex="1" parent="1">
          <mxGeometry x="410" y="110" width="100" height="40" as="geometry" />
        </mxCell>
        <mxCell id="xvgSW02Jdr_Vk1jisue1-146" value="Uses" style="ellipse;whiteSpace=wrap;html=1;align=center;" vertex="1" parent="1">
          <mxGeometry x="190" y="-190" width="100" height="40" as="geometry" />
        </mxCell>
        <mxCell id="xvgSW02Jdr_Vk1jisue1-147" value="Edible Parts" style="ellipse;whiteSpace=wrap;html=1;align=center;" vertex="1" parent="1">
          <mxGeometry x="190" y="-140" width="100" height="40" as="geometry" />
        </mxCell>
        <mxCell id="xvgSW02Jdr_Vk1jisue1-148" value="Harvest Time" style="ellipse;whiteSpace=wrap;html=1;align=center;" vertex="1" parent="1">
          <mxGeometry x="190" y="-90" width="100" height="40" as="geometry" />
        </mxCell>
        <mxCell id="xvgSW02Jdr_Vk1jisue1-149" value="Propagation Methods" style="ellipse;whiteSpace=wrap;html=1;align=center;" vertex="1" parent="1">
          <mxGeometry x="190" y="-40" width="100" height="40" as="geometry" />
        </mxCell>
        <mxCell id="xvgSW02Jdr_Vk1jisue1-150" value="Pests And Diseases" style="ellipse;whiteSpace=wrap;html=1;align=center;" vertex="1" parent="1">
          <mxGeometry x="220" y="10" width="100" height="40" as="geometry" />
        </mxCell>
        <mxCell id="xvgSW02Jdr_Vk1jisue1-151" value="Companion Plants" style="ellipse;whiteSpace=wrap;html=1;align=center;" vertex="1" parent="1">
          <mxGeometry x="270" y="60" width="100" height="40" as="geometry" />
        </mxCell>
        <mxCell id="xvgSW02Jdr_Vk1jisue1-152" value="" style="fontSize=12;html=1;endArrow=ERmandOne;startArrow=ERmandOne;rounded=0;exitX=0.5;exitY=0;exitDx=0;exitDy=0;entryX=0;entryY=0.5;entryDx=0;entryDy=0;" edge="1" parent="1" source="Pf63q6bYd26DnOZfkLJH-1" target="xvgSW02Jdr_Vk1jisue1-48">
          <mxGeometry width="100" height="100" relative="1" as="geometry">
            <mxPoint x="840" y="280" as="sourcePoint" />
            <mxPoint x="940" y="180" as="targetPoint" />
          </mxGeometry>
        </mxCell>
        <mxCell id="xvgSW02Jdr_Vk1jisue1-155" value="" style="fontSize=12;html=1;endArrow=ERmandOne;startArrow=ERmandOne;rounded=0;entryX=0;entryY=0.5;entryDx=0;entryDy=0;" edge="1" parent="1" target="xvgSW02Jdr_Vk1jisue1-63">
          <mxGeometry width="100" height="100" relative="1" as="geometry">
            <mxPoint x="380" y="290" as="sourcePoint" />
            <mxPoint x="1235" y="-20" as="targetPoint" />
          </mxGeometry>
        </mxCell>
        <mxCell id="xvgSW02Jdr_Vk1jisue1-156" value="" style="fontSize=12;html=1;endArrow=ERoneToMany;rounded=0;entryX=0.5;entryY=1;entryDx=0;entryDy=0;" edge="1" parent="1" target="xvgSW02Jdr_Vk1jisue1-131">
          <mxGeometry width="100" height="100" relative="1" as="geometry">
            <mxPoint x="380" y="290" as="sourcePoint" />
            <mxPoint x="580" y="90" as="targetPoint" />
          </mxGeometry>
        </mxCell>
        <mxCell id="xvgSW02Jdr_Vk1jisue1-157" style="rounded=0;orthogonalLoop=1;jettySize=auto;html=1;entryX=1;entryY=0.5;entryDx=0;entryDy=0;labelBackgroundColor=none;fontColor=default;" edge="1" parent="1" source="xvgSW02Jdr_Vk1jisue1-168" target="xvgSW02Jdr_Vk1jisue1-169">
          <mxGeometry relative="1" as="geometry" />
        </mxCell>
        <mxCell id="xvgSW02Jdr_Vk1jisue1-158" style="rounded=0;orthogonalLoop=1;jettySize=auto;html=1;entryX=1;entryY=0.5;entryDx=0;entryDy=0;labelBackgroundColor=none;fontColor=default;" edge="1" parent="1" source="xvgSW02Jdr_Vk1jisue1-168" target="xvgSW02Jdr_Vk1jisue1-170">
          <mxGeometry relative="1" as="geometry" />
        </mxCell>
        <mxCell id="xvgSW02Jdr_Vk1jisue1-159" value="" style="rounded=0;orthogonalLoop=1;jettySize=auto;html=1;labelBackgroundColor=none;fontColor=default;" edge="1" parent="1" source="xvgSW02Jdr_Vk1jisue1-168" target="xvgSW02Jdr_Vk1jisue1-172">
          <mxGeometry relative="1" as="geometry" />
        </mxCell>
        <mxCell id="xvgSW02Jdr_Vk1jisue1-160" style="rounded=0;orthogonalLoop=1;jettySize=auto;html=1;entryX=0.5;entryY=1;entryDx=0;entryDy=0;labelBackgroundColor=none;fontColor=default;" edge="1" parent="1" source="xvgSW02Jdr_Vk1jisue1-168" target="xvgSW02Jdr_Vk1jisue1-171">
          <mxGeometry relative="1" as="geometry" />
        </mxCell>
        <mxCell id="xvgSW02Jdr_Vk1jisue1-161" style="rounded=0;orthogonalLoop=1;jettySize=auto;html=1;entryX=0;entryY=0.5;entryDx=0;entryDy=0;labelBackgroundColor=none;fontColor=default;" edge="1" parent="1" source="xvgSW02Jdr_Vk1jisue1-168" target="xvgSW02Jdr_Vk1jisue1-173">
          <mxGeometry relative="1" as="geometry" />
        </mxCell>
        <mxCell id="xvgSW02Jdr_Vk1jisue1-162" style="rounded=0;orthogonalLoop=1;jettySize=auto;html=1;entryX=0;entryY=0.5;entryDx=0;entryDy=0;labelBackgroundColor=none;fontColor=default;" edge="1" parent="1" source="xvgSW02Jdr_Vk1jisue1-168" target="xvgSW02Jdr_Vk1jisue1-174">
          <mxGeometry relative="1" as="geometry" />
        </mxCell>
        <mxCell id="xvgSW02Jdr_Vk1jisue1-163" style="rounded=0;orthogonalLoop=1;jettySize=auto;html=1;labelBackgroundColor=none;fontColor=default;" edge="1" parent="1" source="xvgSW02Jdr_Vk1jisue1-168" target="xvgSW02Jdr_Vk1jisue1-175">
          <mxGeometry relative="1" as="geometry" />
        </mxCell>
        <mxCell id="xvgSW02Jdr_Vk1jisue1-164" style="rounded=0;orthogonalLoop=1;jettySize=auto;html=1;entryX=0;entryY=0.5;entryDx=0;entryDy=0;labelBackgroundColor=none;fontColor=default;" edge="1" parent="1" source="xvgSW02Jdr_Vk1jisue1-168" target="xvgSW02Jdr_Vk1jisue1-176">
          <mxGeometry relative="1" as="geometry" />
        </mxCell>
        <mxCell id="xvgSW02Jdr_Vk1jisue1-165" style="rounded=0;orthogonalLoop=1;jettySize=auto;html=1;entryX=0.5;entryY=0;entryDx=0;entryDy=0;labelBackgroundColor=none;fontColor=default;" edge="1" parent="1" source="xvgSW02Jdr_Vk1jisue1-168" target="xvgSW02Jdr_Vk1jisue1-177">
          <mxGeometry relative="1" as="geometry" />
        </mxCell>
        <mxCell id="xvgSW02Jdr_Vk1jisue1-166" style="rounded=0;orthogonalLoop=1;jettySize=auto;html=1;entryX=0.5;entryY=0;entryDx=0;entryDy=0;labelBackgroundColor=none;fontColor=default;" edge="1" parent="1" source="xvgSW02Jdr_Vk1jisue1-168" target="xvgSW02Jdr_Vk1jisue1-178">
          <mxGeometry relative="1" as="geometry" />
        </mxCell>
        <mxCell id="xvgSW02Jdr_Vk1jisue1-167" style="rounded=0;orthogonalLoop=1;jettySize=auto;html=1;entryX=1;entryY=0.5;entryDx=0;entryDy=0;labelBackgroundColor=none;fontColor=default;" edge="1" parent="1" source="xvgSW02Jdr_Vk1jisue1-168" target="xvgSW02Jdr_Vk1jisue1-179">
          <mxGeometry relative="1" as="geometry" />
        </mxCell>
        <mxCell id="xvgSW02Jdr_Vk1jisue1-186" style="rounded=0;orthogonalLoop=1;jettySize=auto;html=1;entryX=1;entryY=0.5;entryDx=0;entryDy=0;" edge="1" parent="1" source="xvgSW02Jdr_Vk1jisue1-168" target="xvgSW02Jdr_Vk1jisue1-180">
          <mxGeometry relative="1" as="geometry" />
        </mxCell>
        <mxCell id="xvgSW02Jdr_Vk1jisue1-187" style="rounded=0;orthogonalLoop=1;jettySize=auto;html=1;entryX=1;entryY=0.5;entryDx=0;entryDy=0;" edge="1" parent="1" source="xvgSW02Jdr_Vk1jisue1-168" target="xvgSW02Jdr_Vk1jisue1-181">
          <mxGeometry relative="1" as="geometry" />
        </mxCell>
        <mxCell id="xvgSW02Jdr_Vk1jisue1-188" style="rounded=0;orthogonalLoop=1;jettySize=auto;html=1;entryX=1;entryY=0.5;entryDx=0;entryDy=0;" edge="1" parent="1" source="xvgSW02Jdr_Vk1jisue1-168" target="xvgSW02Jdr_Vk1jisue1-182">
          <mxGeometry relative="1" as="geometry" />
        </mxCell>
        <mxCell id="xvgSW02Jdr_Vk1jisue1-189" style="rounded=0;orthogonalLoop=1;jettySize=auto;html=1;entryX=1;entryY=0.5;entryDx=0;entryDy=0;" edge="1" parent="1" source="xvgSW02Jdr_Vk1jisue1-168" target="xvgSW02Jdr_Vk1jisue1-183">
          <mxGeometry relative="1" as="geometry" />
        </mxCell>
        <mxCell id="xvgSW02Jdr_Vk1jisue1-168" value="Seller" style="whiteSpace=wrap;html=1;align=center;labelBackgroundColor=none;" vertex="1" parent="1">
          <mxGeometry x="1965" y="290" width="100" height="40" as="geometry" />
        </mxCell>
        <mxCell id="xvgSW02Jdr_Vk1jisue1-169" value="Seller ID" style="ellipse;whiteSpace=wrap;html=1;align=center;fontStyle=4;labelBackgroundColor=none;" vertex="1" parent="1">
          <mxGeometry x="1750" y="200" width="100" height="40" as="geometry" />
        </mxCell>
        <mxCell id="xvgSW02Jdr_Vk1jisue1-170" value="First name" style="ellipse;whiteSpace=wrap;html=1;align=center;labelBackgroundColor=none;" vertex="1" parent="1">
          <mxGeometry x="1820" y="150" width="100" height="40" as="geometry" />
        </mxCell>
        <mxCell id="xvgSW02Jdr_Vk1jisue1-171" value="Last Name" style="ellipse;whiteSpace=wrap;html=1;align=center;labelBackgroundColor=none;" vertex="1" parent="1">
          <mxGeometry x="1930" y="120" width="100" height="40" as="geometry" />
        </mxCell>
        <mxCell id="xvgSW02Jdr_Vk1jisue1-172" value="Username" style="ellipse;whiteSpace=wrap;html=1;align=center;labelBackgroundColor=none;" vertex="1" parent="1">
          <mxGeometry x="2030" y="170" width="100" height="40" as="geometry" />
        </mxCell>
        <mxCell id="xvgSW02Jdr_Vk1jisue1-173" value="Date of Birth" style="ellipse;whiteSpace=wrap;html=1;align=center;labelBackgroundColor=none;" vertex="1" parent="1">
          <mxGeometry x="2120" y="210" width="100" height="40" as="geometry" />
        </mxCell>
        <mxCell id="xvgSW02Jdr_Vk1jisue1-174" value="Address" style="ellipse;whiteSpace=wrap;html=1;align=center;labelBackgroundColor=none;" vertex="1" parent="1">
          <mxGeometry x="2150" y="260" width="100" height="40" as="geometry" />
        </mxCell>
        <mxCell id="xvgSW02Jdr_Vk1jisue1-175" value="Telephone Number" style="ellipse;whiteSpace=wrap;html=1;align=center;labelBackgroundColor=none;" vertex="1" parent="1">
          <mxGeometry x="2170" y="320" width="100" height="40" as="geometry" />
        </mxCell>
        <mxCell id="xvgSW02Jdr_Vk1jisue1-176" value="Email Address" style="ellipse;whiteSpace=wrap;html=1;align=center;labelBackgroundColor=none;" vertex="1" parent="1">
          <mxGeometry x="2160" y="380" width="100" height="40" as="geometry" />
        </mxCell>
        <mxCell id="xvgSW02Jdr_Vk1jisue1-177" value="Password" style="ellipse;whiteSpace=wrap;html=1;align=center;labelBackgroundColor=none;" vertex="1" parent="1">
          <mxGeometry x="2100" y="440" width="100" height="40" as="geometry" />
        </mxCell>
        <mxCell id="xvgSW02Jdr_Vk1jisue1-178" value="Profile Picture" style="ellipse;whiteSpace=wrap;html=1;align=center;labelBackgroundColor=none;" vertex="1" parent="1">
          <mxGeometry x="2010" y="490" width="100" height="40" as="geometry" />
        </mxCell>
        <mxCell id="xvgSW02Jdr_Vk1jisue1-179" value="Last Name" style="ellipse;whiteSpace=wrap;html=1;align=center;labelBackgroundColor=none;" vertex="1" parent="1">
          <mxGeometry x="1890" y="500" width="100" height="40" as="geometry" />
        </mxCell>
        <mxCell id="xvgSW02Jdr_Vk1jisue1-180" value="Member ID" style="ellipse;whiteSpace=wrap;html=1;align=center;labelBackgroundColor=none;" vertex="1" parent="1">
          <mxGeometry x="1730" y="280" width="100" height="40" as="geometry" />
        </mxCell>
        <mxCell id="xvgSW02Jdr_Vk1jisue1-181" value="Shop Name" style="ellipse;whiteSpace=wrap;html=1;align=center;labelBackgroundColor=none;" vertex="1" parent="1">
          <mxGeometry x="1725" y="350" width="100" height="40" as="geometry" />
        </mxCell>
        <mxCell id="xvgSW02Jdr_Vk1jisue1-182" value="Shop Location" style="ellipse;whiteSpace=wrap;html=1;align=center;labelBackgroundColor=none;" vertex="1" parent="1">
          <mxGeometry x="1740" y="410" width="100" height="40" as="geometry" />
        </mxCell>
        <mxCell id="xvgSW02Jdr_Vk1jisue1-183" value="Shop Picture" style="ellipse;whiteSpace=wrap;html=1;align=center;labelBackgroundColor=none;" vertex="1" parent="1">
          <mxGeometry x="1770" y="470" width="100" height="40" as="geometry" />
        </mxCell>
        <mxCell id="xvgSW02Jdr_Vk1jisue1-190" value="" style="fontSize=12;html=1;endArrow=ERmandOne;rounded=0;exitX=0;exitY=0.5;exitDx=0;exitDy=0;entryX=1;entryY=0.5;entryDx=0;entryDy=0;" edge="1" parent="1" source="xvgSW02Jdr_Vk1jisue1-168" target="vxhg9_nKQ87Y8Qyns_xk-53">
          <mxGeometry width="100" height="100" relative="1" as="geometry">
            <mxPoint x="1780" y="390" as="sourcePoint" />
            <mxPoint x="1880" y="290" as="targetPoint" />
          </mxGeometry>
        </mxCell>
      </root>
    </mxGraphModel>
  </diagram>
</mxfile>
